# File created by Blade
# Date/Time:  Wed Apr 08 17:04:22 2015
# Frame Rate: 120.000 fps
#------------------------------------------------------
:FULLY-SPECIFIED
:DEGREES
1189
root 3.895709 35.966892 4.022343 -145.660395 -79.244778 174.568003
Spine -30.070058 -16.326623 -3.261905
Head 56.341367 -23.052048 -24.514337
LeftShoulder 13.345691 0.730315 27.231911
LeftArm 104.408433 42.384190 -38.047826
LeftForeArm -1.519745 0.000000 94.999463
LeftHand -8.443646 0.000000 -14.885492
LeftHandThumb1 -26.253704 0.000000 33.147579
RightShoulder -5.502755 -63.393624 -27.001533
RightArm 37.040825 -9.132041 53.509949
RightForeArm 0.350544 -0.000000 17.681874
RightHand 16.389085 -0.000000 -39.845550
RightHandThumb1 -24.326973 -0.000000 -32.862282
LeftUpLeg -33.011141 11.650125 -4.104689
LeftLeg 19.949975 -0.000000 -0.000000
LeftFoot -17.580571 10.772772 -15.810969
LeftToeBase 8.959527 -0.000000 -0.000000
RightUpLeg -35.336795 -4.975338 -9.471427
RightLeg 16.118301 -0.000000 -0.000000
RightFoot -10.048562 3.494974 20.220529
RightToeBase 13.954633 -0.000000 -0.000000
1190
root 3.890042 35.967735 4.016975 -145.611342 -79.309233 174.531251
Spine -30.063855 -16.335251 -3.282231
Head 56.303030 -23.096892 -24.450688
LeftShoulder 13.392731 0.670457 27.264732
LeftArm 104.434522 42.439328 -37.981143
LeftForeArm -1.611776 -0.000000 94.970372
LeftHand -8.422116 -0.000000 -14.778100
LeftHandThumb1 -26.253704 0.000000 33.147579
RightShoulder -5.410169 -63.444521 -27.043194
RightArm 37.104572 -10.522253 52.882792
RightForeArm -1.135016 -0.000000 16.351509
RightHand 16.666460 -0.000000 -38.812957
RightHandThumb1 -24.326973 -0.000000 -32.862282
LeftUpLeg -33.008619 11.612661 -4.077169
LeftLeg 19.928953 -0.000000 -0.000000
LeftFoot -17.569663 10.765257 -15.807268
LeftToeBase 8.975416 -0.000000 -0.000000
RightUpLeg -35.313510 -5.050520 -9.420067
RightLeg 16.101648 -0.000000 -0.000000
RightFoot -10.071068 3.504936 20.187051
RightToeBase 13.997268 -0.000000 -0.000000
1191
root 3.887555 35.967674 4.014253 -145.698208 -79.299426 174.603486
Spine -30.016970 -16.281635 -3.326142
Head 56.235370 -23.117573 -24.385862
LeftShoulder 13.422140 0.692308 27.277484
LeftArm 104.512802 42.414096 -37.846300
LeftForeArm -1.651122 -0.000000 94.943961
LeftHand -8.415307 -0.000000 -14.676763
LeftHandThumb1 -26.253704 0.000000 33.147579
RightShoulder -5.254994 -63.479790 -27.144332
RightArm 37.140756 -11.904262 52.353704
RightForeArm -2.808329 -0.000000 15.108006
RightHand 16.729418 -0.000000 -37.702599
RightHandThumb1 -24.326973 -0.000000 -32.862282
LeftUpLeg -32.984304 11.643883 -4.070598
LeftLeg 19.921803 -0.000000 -0.000000
LeftFoot -17.564411 10.752104 -15.798031
LeftToeBase 8.945117 -0.000000 -0.000000
RightUpLeg -35.299777 -5.027547 -9.413609
RightLeg 16.107798 -0.000000 -0.000000
RightFoot -10.078355 3.502045 20.185496
RightToeBase 14.021012 -0.000000 -0.000000
1192
root 3.883680 35.966738 4.011827 -145.692429 -79.276498 174.580525
Spine -29.962857 -16.212635 -3.404041
Head 56.149805 -23.158786 -24.284645
LeftShoulder 13.436527 0.744266 27.300523
LeftArm 104.651781 42.364903 -37.669298
LeftForeArm -1.724222 0.000000 94.913762
LeftHand -8.425335 -0.000000 -14.647769
LeftHandThumb1 -26.253704 0.000000 33.147579
RightShoulder -5.193597 -63.552974 -27.128827
RightArm 37.134681 -13.136001 51.888099
RightForeArm -4.124444 -0.000000 14.060017
RightHand 16.714554 -0.000000 -37.094734
RightHandThumb1 -24.326973 -0.000000 -32.862282
LeftUpLeg -32.945860 11.650874 -4.072014
LeftLeg 19.902444 -0.000000 -0.000000
LeftFoot -17.579974 10.760893 -15.799846
LeftToeBase 8.985101 -0.000000 -0.000000
RightUpLeg -35.292355 -5.001712 -9.430702
RightLeg 16.132798 -0.000000 -0.000000
RightFoot -10.113332 3.500588 20.197577
RightToeBase 14.064962 -0.000000 -0.000000
1193
root 3.879672 35.965165 4.009098 -145.666304 -79.269179 174.539002
Spine -29.910074 -16.148295 -3.476824
Head 56.095288 -23.234251 -24.208476
LeftShoulder 13.460448 0.773397 27.332612
LeftArm 104.763670 42.331109 -37.513421
LeftForeArm -1.687355 -0.000000 94.903576
LeftHand -8.472792 -0.000000 -14.688357
LeftHandThumb1 -26.253704 0.000000 33.147579
RightShoulder -5.171446 -63.704464 -27.070263
RightArm 37.171759 -14.392983 51.360824
RightForeArm -5.265845 -0.000000 13.060400
RightHand 17.186986 -0.000000 -36.043653
RightHandThumb1 -24.326973 -0.000000 -32.862282
LeftUpLeg -32.916450 11.649358 -4.073760
LeftLeg 19.891797 -0.000000 -0.000000
LeftFoot -17.594240 10.771085 -15.808528
LeftToeBase 9.004893 -0.000000 -0.000000
RightUpLeg -35.282686 -4.977478 -9.446167
RightLeg 16.158798 -0.000000 -0.000000
RightFoot -10.156034 3.482572 20.174767
RightToeBase 14.076115 -0.000000 -0.000000
1194
root 3.875792 35.963324 4.005620 -145.670734 -79.267072 174.523291
Spine -29.846236 -16.085029 -3.551903
Head 56.024445 -23.298010 -24.108985
LeftShoulder 13.464218 0.854269 27.344333
LeftArm 104.921233 42.267695 -37.337298
LeftForeArm -1.865741 0.000000 94.837517
LeftHand -8.396627 -0.000000 -14.857171
LeftHandThumb1 -26.253704 0.000000 33.147579
RightShoulder -5.209977 -63.943280 -26.904922
RightArm 37.232578 -15.569549 50.779687
RightForeArm -6.258727 -0.000000 12.240632
RightHand 17.331011 0.000000 -35.109204
RightHandThumb1 -24.326973 -0.000000 -32.862282
LeftUpLeg -32.889641 11.634549 -4.060745
LeftLeg 19.898465 -0.000000 -0.000000
LeftFoot -17.613263 10.782474 -15.799819
LeftToeBase 9.010171 -0.000000 -0.000000
RightUpLeg -35.271624 -4.938465 -9.464316
RightLeg 16.196099 -0.000000 -0.000000
RightFoot -10.203015 3.462563 20.205301
RightToeBase 14.093743 -0.000000 -0.000000
